<svg xmlns:dc="http://purl.org/dc/elements/1.1/" xmlns:cc="http://creativecommons.org/ns#" xmlns:rdf="http://www.w3.org/1999/02/22-rdf-syntax-ns#" xmlns:svg="http://www.w3.org/2000/svg" xmlns="http://www.w3.org/2000/svg" xmlns:sodipodi="http://sodipodi.sourceforge.net/DTD/sodipodi-0.dtd" xmlns:inkscape="http://www.inkscape.org/namespaces/inkscape" version="1.1" x="0px" y="0px" viewBox="0 0 100 125"><g transform="translate(0,-952.36218)"><path style="text-indent:0;text-transform:none;direction:ltr;block-progression:tb;baseline-shift:baseline;color:#000000;enable-background:accumulate;" d="m 49.8438,960.36554 a 3.0003,3.0003 0 0 0 -0.875,0.15625 l -30,11 A 3.0003,3.0003 0 0 0 17,974.36554 l 0,33.00006 c 0,8.1941 4.6248,14.9591 10.656199,20.7187 6.0315,5.7596 13.619,10.7589 20.593801,15.7187 a 3.0003,3.0003 0 0 0 3.5,0 c 6.9748,-4.9598 14.562299,-9.9591 20.5938,-15.7187 C 78.3752,1022.3247 83,1015.5597 83,1007.3656 l 0,-33.00006 a 3.0003,3.0003 0 0 0 -1.968801,-2.84375 l -30,-11 A 3.0003,3.0003 0 0 0 49.8438,960.36554 z m 0.1562,6.1875 27,9.90625 0,30.90631 c 0,5.9388 -3.3595,11.1678 -8.8125,16.3749 -5.0012,4.7759 -11.653801,9.2983 -18.1875,13.9063 -6.5337,-4.608 -13.186301,-9.1304 -18.1875,-13.9063 C 26.359501,1018.5334 23,1013.3044 23,1007.3656 l 0,-30.90631 27,-9.90625 z" fill="#000000" fill-opacity="1" marker="none" visibility="visible" display="inline" overflow="visible"/></g></svg>